<svg width="500" height="500" viewBox="0 0 500 500" fill="none" xmlns="http://www.w3.org/2000/svg">
<rect width="500" height="500" fill="white"/>
<g clip-path="url(#clip0_11_7296)">
<path d="M89.2279 222.492C94.2079 231.829 105.806 235.353 115.143 230.383L250.359 158.259C253.271 156.708 256.776 156.765 259.639 158.403L384.321 230.086C393.496 235.363 405.198 232.193 410.475 223.028C415.752 213.853 412.582 202.15 403.417 196.874L264.935 117.261C259.208 113.966 252.198 113.861 246.375 116.964L97.1097 196.577C87.7722 201.557 84.2479 213.154 89.2183 222.492H89.2279Z" fill="#D1232A"/>
<path d="M403.417 285.201L264.935 205.589C259.208 202.294 252.198 202.189 246.375 205.292L97.1097 284.904C87.7722 289.884 84.2479 301.482 89.2183 310.82C94.1983 320.157 105.796 323.681 115.133 318.711L250.359 246.587C253.271 245.036 256.776 245.093 259.639 246.731L384.321 318.404C393.496 323.681 405.198 320.511 410.475 311.346C415.752 302.172 412.582 290.469 403.417 285.192V285.201Z" fill="#002768"/>
</g>
<defs>
<clipPath id="clip0_11_7296">
<rect width="326.065" height="206.248" fill="white" transform="translate(86.9678 114.714)"/>
</clipPath>
</defs>
</svg>
