<svg width="500" height="500" viewBox="0 0 500 500" fill="none" xmlns="http://www.w3.org/2000/svg">
<rect width="500" height="500" fill="white"/>
<g clip-path="url(#clip0_11_10128)">
<path d="M249.98 331.376L319.769 261.578L250.031 191.819L180.222 261.618V261.638L249.98 331.376ZM250.031 215.136L296.472 261.578L249.98 308.07L203.538 261.628L250.031 215.136Z" fill="#F4821F"/>
<path d="M226.844 75.508V98.8146L389.658 261.568L249.97 401.195L110.402 261.618L180.191 191.829H156.884L87.0957 261.618L249.97 424.492L412.904 261.568L226.844 75.508Z" fill="#F4821F"/>
<path d="M133.618 261.628L133.638 261.638L249.97 377.97H249.98L366.351 261.568L226.844 122.041V145.337L343.095 261.578H343.085L249.97 354.673L156.925 261.628L226.723 191.829H203.417L133.638 261.608L133.618 261.628Z" fill="#F4821F"/>
</g>
<defs>
<clipPath id="clip0_11_10128">
<rect width="325.808" height="348.984" fill="white" transform="translate(87.0957 75.508)"/>
</clipPath>
</defs>
</svg>
