<svg width="500" height="500" viewBox="0 0 500 500" fill="none" xmlns="http://www.w3.org/2000/svg">
<rect width="500" height="500" fill="white"/>
<g clip-path="url(#clip0_11_9851)">
<path d="M250 331.005C345.465 331.005 422.856 294.738 422.856 250C422.856 205.262 345.465 168.995 250 168.995C154.534 168.995 77.1436 205.262 77.1436 250C77.1436 294.738 154.534 331.005 250 331.005Z" fill="#02603B"/>
<path d="M170.947 250.067C169.904 249.779 169.061 250.067 168.418 250.999C164.536 257.875 159.39 261.313 152.958 261.313C147.768 261.313 143.243 258.784 139.339 253.705C135.435 248.625 133.483 242.193 133.483 234.385C133.483 229.417 134.703 225.402 137.165 222.319C139.627 219.236 142.577 217.705 145.993 217.705C148.122 217.705 150.008 218.26 151.649 219.346C153.291 220.433 154.599 221.764 155.62 223.361C156.618 224.936 157.594 226.511 158.525 228.064C159.457 229.616 160.544 230.947 161.808 232.034C163.072 233.121 164.514 233.675 166.156 233.675C167.952 233.675 169.372 233.165 170.414 232.167C171.457 231.147 171.967 229.838 171.967 228.197C171.967 224.271 169.638 220.7 165.002 217.528C160.366 214.334 154.91 212.737 148.633 212.737C140.603 212.737 134.082 215.465 129.025 220.921C123.967 226.378 121.461 233.343 121.461 241.794C121.461 249.823 124.211 256.921 129.69 263.11C135.169 269.298 141.712 272.403 149.298 272.403C156.218 272.403 161.675 270.474 165.668 266.592C169.66 262.71 171.878 257.964 172.388 252.352C172.499 251.154 172.034 250.4 170.991 250.111L170.947 250.067Z" fill="white"/>
<path d="M218.569 263.531L217.505 248.226C217.128 242.437 215.486 238.2 212.603 235.494C209.719 232.788 206.192 231.435 202.045 231.435C197.453 231.435 193.882 232.965 191.331 236.026L191.42 211.472C191.42 210.651 191.154 210.097 190.644 209.831C190.133 209.564 189.401 209.609 188.47 209.986L177.668 214.733C176.581 215.287 176.026 215.952 176.026 216.773V217.017C176.026 217.572 176.647 218.348 177.867 219.391C179.087 220.433 179.708 221.609 179.708 222.917V263.664C179.708 264.928 179.132 266.126 178 267.257C176.847 268.41 176.293 269.253 176.293 269.786V270.118C176.293 271.05 176.914 271.516 178.178 271.516H193.328C194.636 271.516 195.302 271.05 195.302 270.118V269.786C195.302 269.231 194.725 268.388 193.549 267.257C192.374 266.104 191.797 264.906 191.797 263.664V245.098C191.797 242.37 192.418 240.196 193.638 238.555C194.858 236.913 196.566 236.093 198.762 236.093C203.131 236.093 205.505 240.019 205.882 247.871L206.703 263.575C206.747 264.884 206.281 266.104 205.261 267.257C204.241 268.41 203.753 269.253 203.753 269.786V270.118C203.753 271.05 204.351 271.516 205.549 271.516H219.789C220.987 271.516 221.586 271.05 221.586 270.118V269.786C221.586 269.187 221.12 268.322 220.189 267.168C219.257 266.015 218.747 264.795 218.636 263.486L218.569 263.531Z" fill="white"/>
<path d="M264.816 267.834C264.328 267.634 263.84 267.168 263.374 266.392C262.908 265.638 262.597 264.618 262.442 263.353L260.646 248.204C260.047 243.013 258.05 238.932 254.679 235.938C251.285 232.943 246.96 231.435 241.659 231.435C237.245 231.435 233.518 232.278 230.479 233.963C227.441 235.649 225.932 237.912 225.932 240.751C225.932 242.126 226.376 243.213 227.285 244.056C228.195 244.899 229.37 245.32 230.834 245.32C232.187 245.32 233.319 244.766 234.184 243.679C235.049 242.592 235.692 241.394 236.069 240.085C236.446 238.777 237.112 237.579 238.043 236.492C238.975 235.405 240.173 234.851 241.636 234.851C243.988 234.851 245.651 235.915 246.627 238.045C247.603 240.174 248.379 243.834 248.912 249.002L249.001 249.978C246.649 248.337 243.677 247.516 240.084 247.516C235.825 247.516 232.276 248.603 229.437 250.799C226.598 252.973 225.2 256.033 225.267 259.96C225.267 263.952 226.686 266.991 229.526 269.12C232.365 271.25 236.069 272.314 240.661 272.314C245.784 272.314 249.422 270.739 251.551 267.568C251.773 269.253 252.439 270.429 253.548 271.05C254.657 271.671 256.431 271.982 258.827 271.982C264.061 271.982 266.679 271.183 266.679 269.608C266.679 269.12 266.479 268.743 266.102 268.455C265.725 268.189 265.281 267.945 264.793 267.767L264.816 267.834ZM248.601 266.525C247.514 268.033 246.073 268.765 244.254 268.765C242.235 268.765 240.594 267.723 239.307 265.66C238.021 263.597 237.378 261.069 237.378 258.141C237.378 256.078 237.932 254.414 239.063 253.15C240.173 251.886 241.614 251.265 243.367 251.265C245.119 251.265 246.561 251.886 247.736 253.15C248.912 254.414 249.599 256.211 249.821 258.54L250.065 261.401C250.176 263.309 249.688 265.017 248.601 266.525Z" fill="white"/>
<path d="M337.237 263.619L336.261 249.047C335.818 242.836 334.22 238.333 331.426 235.583C328.653 232.832 325.171 231.457 321.023 231.457C318.25 231.457 315.744 232.122 313.526 233.431C311.308 234.74 309.666 236.536 308.579 238.843C305.74 233.941 301.215 231.479 295.005 231.479C290.036 231.479 286.265 233.453 283.714 237.379V233.542C283.714 232.677 283.47 232.056 282.983 231.701C282.495 231.346 281.785 231.39 280.853 231.834L270.539 236.581C269.386 237.135 268.831 237.69 268.831 238.289V238.621C268.831 239.176 269.164 239.708 269.851 240.219C270.539 240.729 271.204 241.35 271.848 242.06C272.491 242.769 272.824 243.634 272.824 244.677V263.752C272.824 265.061 272.247 266.281 271.071 267.435C269.896 268.588 269.319 269.431 269.319 269.963V270.296C269.319 271.227 269.94 271.693 271.204 271.693H286.421C287.685 271.693 288.306 271.227 288.306 270.296V269.963C288.306 269.409 287.729 268.566 286.554 267.435C285.378 266.281 284.801 265.061 284.801 263.752V245.254C284.801 242.592 285.422 240.396 286.687 238.71C287.951 237.024 289.659 236.182 291.833 236.182C294.006 236.182 295.67 237.202 296.979 239.22C298.287 241.239 298.953 244.1 298.953 247.804V263.752C298.953 265.061 298.465 266.281 297.489 267.435C296.513 268.588 296.025 269.431 296.025 269.963V270.296C296.025 271.227 296.646 271.693 297.91 271.693H312.062C313.26 271.693 313.858 271.227 313.858 270.296V269.963C313.858 269.409 313.37 268.566 312.417 267.435C311.463 266.281 310.975 265.061 310.975 263.752V248.603C310.975 247.072 310.864 245.764 310.642 244.677C310.753 242.17 311.396 240.13 312.616 238.533C313.814 236.958 315.367 236.159 317.274 236.159C319.515 236.159 321.2 237.135 322.354 239.065C323.507 240.995 324.173 244.233 324.394 248.758L325.215 263.73C325.326 265.039 324.882 266.259 323.862 267.412C322.842 268.566 322.354 269.409 322.354 269.941V270.274C322.354 271.205 322.975 271.671 324.239 271.671H338.391C339.588 271.671 340.187 271.205 340.187 270.274V269.941C340.187 269.342 339.721 268.477 338.79 267.324C337.858 266.17 337.348 264.95 337.237 263.642V263.619Z" fill="white"/>
<path d="M377.407 255.146C376.586 253.638 375.522 252.485 374.213 251.664C372.904 250.843 371.44 250.156 369.843 249.579C368.224 249.002 366.627 248.492 365.052 248.026C363.477 247.56 362.036 247.05 360.705 246.518C359.374 245.986 358.331 245.187 357.511 244.145C356.69 243.102 356.291 241.838 356.291 240.307C356.291 238.777 356.779 237.49 357.755 236.426C358.731 235.361 360.017 234.829 361.592 234.829C363.167 234.829 364.453 235.383 365.429 236.514C366.405 237.623 367.093 238.866 367.47 240.196C367.847 241.527 368.512 242.769 369.444 243.878C370.376 244.987 371.596 245.564 373.126 245.564C374.435 245.564 375.544 245.165 376.431 244.344C377.318 243.524 377.784 242.525 377.784 241.305C377.784 238.622 376.209 236.337 373.082 234.385C369.954 232.455 365.895 231.479 360.927 231.479C355.958 231.479 352.01 232.61 348.927 234.873C345.844 237.135 344.313 240.019 344.313 243.501C344.313 246.451 345.089 248.825 346.642 250.666C348.195 252.485 350.102 253.771 352.32 254.503C354.561 255.235 356.801 255.9 359.041 256.477C361.281 257.054 363.167 257.919 364.719 259.05C366.272 260.181 367.048 261.756 367.048 263.708C367.048 265.46 366.494 266.791 365.363 267.723C364.254 268.655 362.812 269.12 361.06 269.12C359.307 269.12 357.799 268.566 356.69 267.435C355.581 266.326 354.805 265.083 354.405 263.708C354.006 262.355 353.296 261.113 352.32 259.982C351.344 258.873 350.058 258.296 348.483 258.296C347.019 258.296 345.821 258.673 344.934 259.449C344.047 260.226 343.581 261.335 343.581 262.799C343.581 265.416 345.222 267.656 348.483 269.52C351.744 271.383 355.958 272.292 361.082 272.292C366.206 272.292 370.686 271.183 373.858 268.987C377.03 266.769 378.605 263.974 378.605 260.603C378.605 258.473 378.206 256.655 377.385 255.168L377.407 255.146Z" fill="white"/>
</g>
<defs>
<clipPath id="clip0_11_9851">
<rect width="345.712" height="162.01" fill="white" transform="translate(77.1436 168.995)"/>
</clipPath>
</defs>
</svg>
