<svg width="16" height="16" viewBox="0 0 16 16" fill="none" xmlns="http://www.w3.org/2000/svg">
<path d="M8.24664 1.43331L14.2466 3.83329C14.48 3.92663 14.6666 4.20662 14.6666 4.45329V6.66663C14.6666 7.03329 14.3666 7.33329 14 7.33329H1.99998C1.63331 7.33329 1.33331 7.03329 1.33331 6.66663V4.45329C1.33331 4.20662 1.51998 3.92663 1.75332 3.83329L7.75332 1.43331C7.88665 1.37998 8.11331 1.37998 8.24664 1.43331Z" stroke="#00AE99" stroke-miterlimit="10" stroke-linecap="round" stroke-linejoin="round"/>
<path d="M14.6666 14.6667H1.33331V12.6667C1.33331 12.3 1.63331 12 1.99998 12H14C14.3666 12 14.6666 12.3 14.6666 12.6667V14.6667Z" stroke="#00AE99" stroke-miterlimit="10" stroke-linecap="round" stroke-linejoin="round"/>
<path d="M2.66669 12V7.33337" stroke="#00AE99" stroke-miterlimit="10" stroke-linecap="round" stroke-linejoin="round"/>
<path d="M5.33331 12V7.33337" stroke="#00AE99" stroke-miterlimit="10" stroke-linecap="round" stroke-linejoin="round"/>
<path d="M8 12V7.33337" stroke="#00AE99" stroke-miterlimit="10" stroke-linecap="round" stroke-linejoin="round"/>
<path d="M10.6667 12V7.33337" stroke="#00AE99" stroke-miterlimit="10" stroke-linecap="round" stroke-linejoin="round"/>
<path d="M13.3333 12V7.33337" stroke="#00AE99" stroke-miterlimit="10" stroke-linecap="round" stroke-linejoin="round"/>
<path d="M0.666687 14.6666H15.3334" stroke="#00AE99" stroke-miterlimit="10" stroke-linecap="round" stroke-linejoin="round"/>
<path d="M8 5.66663C8.55228 5.66663 9 5.21891 9 4.66663C9 4.11434 8.55228 3.66663 8 3.66663C7.44772 3.66663 7 4.11434 7 4.66663C7 5.21891 7.44772 5.66663 8 5.66663Z" stroke="#00AE99" stroke-miterlimit="10" stroke-linecap="round" stroke-linejoin="round"/>
</svg>
