<svg width="500" height="500" viewBox="0 0 500 500" fill="none" xmlns="http://www.w3.org/2000/svg">
<rect width="500" height="500" fill="white"/>
<g clip-path="url(#clip0_11_7334)">
<path d="M292.825 229.335H367.205C357.425 173.475 308.685 131.015 250.005 131.015C184.285 131.015 131.015 184.285 131.015 250.005C131.015 315.725 184.285 368.995 250.005 368.995C285.565 368.995 317.485 353.395 339.255 328.675L374.545 363.945C343.695 397.675 299.315 418.815 250.005 418.815C156.765 418.815 81.1846 343.235 81.1846 250.005C81.1846 156.775 156.765 81.1851 250.005 81.1851C336.235 81.1851 407.385 145.835 417.555 229.335C417.575 229.395 417.575 229.475 417.575 229.535C418.405 236.245 418.815 243.085 418.815 250.005C418.815 256.925 418.445 263.065 417.715 269.435H293.415C285.995 286.025 269.355 297.565 250.005 297.565C223.735 297.565 202.455 276.285 202.455 250.015C202.455 223.745 223.735 202.465 250.005 202.465C268.865 202.465 285.155 213.455 292.825 229.345V229.335Z" fill="#BB3438"/>
</g>
<defs>
<clipPath id="clip0_11_7334">
<rect width="337.63" height="337.63" fill="white" transform="translate(81.1846 81.1851)"/>
</clipPath>
</defs>
</svg>
