<svg width="500" height="500" viewBox="0 0 500 500" fill="none" xmlns="http://www.w3.org/2000/svg">
<rect width="500" height="500" fill="white"/>
<g clip-path="url(#clip0_11_9581)">
<path d="M250 423.23C345.672 423.23 423.23 345.672 423.23 250C423.23 154.328 345.672 76.77 250 76.77C154.327 76.77 76.7695 154.328 76.7695 250C76.7695 345.672 154.327 423.23 250 423.23Z" fill="#5C3092"/>
<path d="M149.7 173.363H186.668V185.373H164.169V196.083H179.867V207.368H164.169V226.904H149.7V173.372V173.363Z" fill="white"/>
<path d="M187.464 200.133C187.464 180.526 198.97 172.354 212.572 172.354C227.182 172.354 232.975 179.881 235.212 189.432L221.54 193.483C220.089 188.344 218.064 184.294 212.492 184.294C205.329 184.294 201.933 190.157 201.933 200.133C201.933 210.109 205.479 216.335 212.643 216.335C218.285 216.335 220.602 212.789 222.265 206.138L235.938 209.181C233.337 220.032 227.182 227.921 212.572 227.921C197.962 227.921 187.464 219.749 187.464 200.142V200.133Z" fill="white"/>
<path d="M241.58 173.363H260.754L270.155 209.676H270.296L278.76 173.363H298.367V226.895H284.553V193.757H284.411C283.545 199.258 282.678 202.654 281.519 206.775L275.877 226.886H263.142L257.641 206.775C256.411 202.433 255.757 200.045 254.598 193.032H254.457V226.886H241.58V173.354V173.363Z" fill="white"/>
<path d="M306.335 173.363H328.834C337.731 173.363 348.291 174.734 348.291 186.531C348.291 194.27 343.515 197.746 338.164 198.754V198.895C344.674 200.054 349.591 203.167 349.591 212.064C349.591 223.711 338.739 226.895 329.692 226.895H306.326V173.363H306.335ZM327.384 194.712C332.593 194.712 334.547 192.687 334.547 189.574C334.547 186.461 332.593 184.435 327.534 184.435H320.521V194.712H327.392H327.384ZM327.746 216.053C333.176 216.053 335.485 213.957 335.485 210.269C335.485 206.581 333.097 204.697 327.596 204.697H320.503V216.053H327.737H327.746Z" fill="white"/>
<path d="M157.279 260.228H353.102V289.334H146.888V270.62C146.888 264.88 151.548 260.228 157.279 260.228Z" fill="#FFB822"/>
<path d="M146.888 298.54H353.111V327.645H157.279C151.54 327.645 146.888 322.985 146.888 317.254V298.54Z" fill="#FFB822"/>
</g>
<defs>
<clipPath id="clip0_11_9581">
<rect width="346.46" height="346.46" fill="white" transform="translate(76.7695 76.77)"/>
</clipPath>
</defs>
</svg>
