<svg width="500" height="500" viewBox="0 0 500 500" fill="none" xmlns="http://www.w3.org/2000/svg">
<rect width="500" height="500" fill="white"/>
<rect x="127.227" y="127.227" width="245.546" height="245.546" fill="#DE4A07"/>
<path d="M212.487 282.676H225.323V325.489H236.581V282.676H249.417V273.267H212.487V282.676Z" fill="white"/>
<path d="M252.775 299.456C252.775 316.462 256.799 326.39 274.784 326.39C279.405 326.39 283.586 325.714 287.688 324.823V314.974C283.958 315.875 279.856 316.541 276.204 316.541C266.58 316.541 264.416 311.988 264.416 299.378C264.416 286.768 266.58 282.215 276.351 282.215C279.934 282.215 283.811 282.813 287.688 283.782V273.933C283.135 272.885 278.886 272.366 274.784 272.366C256.956 272.366 252.775 282.069 252.775 299.446V299.456Z" fill="white"/>
<path d="M314.689 272.376C296.411 272.376 292.309 282.225 292.309 299.378C292.309 316.531 296.411 326.38 314.689 326.38C332.968 326.38 337.149 316.531 337.149 299.378C337.149 282.225 333.115 272.376 314.689 272.376ZM314.689 316.541C305.888 316.541 303.949 311.694 303.949 299.378C303.949 287.062 305.888 282.215 314.689 282.215C323.491 282.215 325.508 287.062 325.508 299.378C325.508 311.694 323.569 316.541 314.689 316.541Z" fill="white"/>
<path d="M189.138 305.262H196.97V316.394C196.97 316.394 189.774 318.195 185.153 316.932C179.181 315.63 178.016 310.676 178.016 300.416C178.016 287.355 183.283 282.783 193.729 282.783C197.538 282.783 202.306 283.38 207.162 284.35V274.501C202.159 273.531 196.862 272.934 192.32 272.934C173.816 272.934 166.385 282.734 166.385 299.965C166.385 317.197 170.301 326.507 187.16 327.095H187.268C187.777 327.104 188.296 327.124 188.834 327.124C189.079 327.124 189.333 327.124 189.568 327.114C189.803 327.124 190.038 327.114 190.273 327.104C190.734 327.104 191.194 327.075 191.644 327.046C192.672 326.967 193.68 326.86 194.669 326.723C194.699 326.723 194.728 326.713 194.757 326.713C201.973 325.685 207.485 323.169 207.485 323.169V296.47H189.128V305.272L189.138 305.262Z" fill="white"/>
<path d="M337.149 160.266H268.342V228.378H337.149V160.266Z" fill="white"/>
</svg>
