<svg width="500" height="500" viewBox="0 0 500 500" fill="none" xmlns="http://www.w3.org/2000/svg">
<rect width="500" height="500" fill="white"/>
<g clip-path="url(#clip0_11_9216)">
<path d="M104.683 260.02L87.6895 244.956L272.46 136.892L414.188 241.712L396.861 258.476L399.594 242.838L272.46 151.726L104.641 245.801C104.641 245.801 104.693 259.456 104.693 260.02H104.683Z" fill="#293868"/>
<path d="M85.8115 288.279L270.582 181.06L411.705 284.889L388.39 321.338L396.871 286.162L271.01 195.467L105.309 288.707L110.817 320.483L85.8115 288.279Z" fill="#CAAC71"/>
<path d="M383.727 206.066V162.419L357.031 142.494L357.459 187.841L383.727 206.066Z" fill="#293868"/>
<path d="M352.514 142.494V183.742L322.001 160.019L352.514 142.494Z" fill="#293868"/>
<path d="M167.034 280.091C171.854 277.744 176.663 275.397 181.482 273.049C181.587 302.958 181.691 332.856 181.806 362.764C176.235 362.753 173.45 362.743 167.89 362.733C167.608 335.182 167.326 307.642 167.045 280.091H167.034Z" fill="#293868"/>
<path d="M205.195 284.17C200.104 286.11 195.023 288.04 189.933 289.981C189.933 282.96 189.933 275.95 189.933 268.929C205.007 261.585 220.081 254.23 235.155 246.886C235.03 255.555 234.905 264.235 234.79 272.903C229.699 274.844 224.619 276.774 219.528 278.714C219.246 306.755 218.965 334.807 218.693 362.848C213.123 362.837 210.337 362.827 204.777 362.816C204.923 336.601 205.059 310.385 205.205 284.17H205.195Z" fill="#293868"/>
<path d="M243.177 242.974C249.561 239.866 255.935 236.757 262.32 233.638C264.969 262.722 267.358 291.827 269.622 320.943C269.674 320.953 269.705 320.963 269.758 320.974C272.939 293.162 276.184 265.361 279.491 237.56C285.562 241.545 291.633 245.53 297.705 249.505C297.1 287.341 296.484 325.188 295.879 363.025C290.559 363.014 287.899 363.004 282.589 362.994C283.058 337.842 283.538 312.691 284.008 287.539C283.955 287.519 283.924 287.508 283.872 287.487C282.996 297.189 281.921 306.849 280.565 316.499C278.426 331.99 276.319 347.481 274.243 362.973C269.34 362.962 266.889 362.952 261.996 362.941C260.598 346.928 259.148 330.926 257.656 314.923C256.603 304.314 255.873 293.694 255.309 283.043C255.257 283.064 255.226 283.075 255.163 283.085C254.652 309.697 254.151 336.309 253.64 362.91C248.685 362.9 246.202 362.889 241.247 362.879C241.894 322.904 242.541 282.929 243.187 242.953L243.177 242.974Z" fill="#293868"/>
<path d="M308.658 256.692C315.627 261.261 322.595 265.83 329.553 270.399C340.465 277.587 348.341 289.041 347.622 302.154C347.288 308.205 346.286 317.218 338.045 317.374C338.045 317.468 338.045 317.52 338.045 317.614C346.099 322.736 348.707 332.031 348.842 340.971C349.019 352.478 341.874 362.837 329.7 363.118C322.209 363.098 314.709 363.087 307.219 363.066C307.699 327.608 308.178 292.16 308.658 256.702V256.692ZM327.916 306.828C332.819 308.737 334.613 306.014 334.707 300.892C334.801 296.041 332.714 291.222 328.187 288.937C325.558 287.581 324.244 286.903 321.625 285.547C321.563 291.795 321.5 298.054 321.437 304.303C324.025 305.315 325.318 305.816 327.916 306.828ZM327.968 344.174C333.153 344.852 335.249 341.524 335.416 335.557C335.552 330.592 333.215 325.574 327.989 324.333C325.297 323.613 323.952 323.248 321.271 322.528C321.198 329.444 321.135 336.35 321.062 343.266C323.826 343.632 325.203 343.809 327.968 344.174Z" fill="#293868"/>
</g>
<defs>
<clipPath id="clip0_11_9216">
<rect width="328.376" height="226.216" fill="white" transform="translate(85.8115 136.892)"/>
</clipPath>
</defs>
</svg>
