<svg width="500" height="500" viewBox="0 0 500 500" fill="none" xmlns="http://www.w3.org/2000/svg">
<rect width="500" height="500" fill="white"/>
<g clip-path="url(#clip0_11_9244)">
<path d="M374.485 219.555H301.735V146.815H374.485V219.555ZM308.295 212.985H367.915V153.375H308.295V212.985Z" fill="#AC8D30"/>
<path d="M401.836 246.905H329.086V174.165H401.836V246.905ZM335.646 240.335H395.266V180.725H335.646V240.335Z" fill="#AC8D30"/>
<path d="M363.826 185.045H340.256V208.615H363.826V185.045Z" fill="#234B2B"/>
<path d="M144.306 199.855H103.476L98.5857 215.465C103.626 214.515 111.196 213.415 116.396 213.575L123.806 213.895C123.486 222.245 123.486 236.125 123.486 243.685L123.806 276.945C124.276 324.395 113.396 333.225 96.8457 341.735C98.4257 342.055 103.626 343.315 106.776 343.315C109.146 343.315 128.686 342.215 136.256 323.455C138.306 318.405 141.296 310.685 141.296 275.215L140.976 238.955C140.816 223.505 141.446 207.905 144.286 199.865L144.306 199.855Z" fill="#234B2B"/>
<path d="M204.526 318.085C202.946 313.195 201.526 308.465 201.526 306.575L200.896 259.445C200.896 253.925 200.896 251.715 198.526 247.465C196.796 244.465 190.326 235.795 175.036 235.795C173.926 235.795 170.616 235.795 167.786 236.425L157.376 238.635L152.966 253.135C158.006 250.135 162.426 247.775 168.576 247.775C176.146 247.775 182.766 251.555 184.966 255.655C185.596 256.915 185.916 258.175 185.916 262.275V266.535C182.606 268.905 181.586 268.935 173.936 272.525C163.496 277.425 144.936 284.825 144.936 299.005C144.936 306.905 150.556 313.155 157.556 316.105C164.696 319.115 172.926 318.125 180.486 318.095C180.786 318.095 185.756 318.095 185.756 318.005C185.756 311.115 185.916 312.225 185.916 306.565H185.776C185.776 312.915 191.066 318.075 197.426 318.075H204.526V318.085ZM177.406 306.585C169.206 306.585 161.796 303.585 161.796 294.445C161.796 291.885 162.346 289.785 164.016 287.815C165.796 285.725 168.116 284.155 170.496 282.835C175.706 279.935 180.976 277.195 186.186 274.305L185.766 305.165C183.086 305.955 181.176 306.585 177.396 306.585H177.406Z" fill="#234B2B"/>
<path d="M237.936 318.085C235.726 314.455 233.206 310.205 233.206 295.225V255.975C233.206 254.185 233.236 252.565 233.306 251.105V235.325H213.186C216.336 241.785 217.446 245.575 217.446 256.135V318.085H237.936Z" fill="#234B2B"/>
<path d="M278.136 308.315H265.526C268.366 299.965 271.046 292.865 271.676 291.605L291.386 246.675C292.646 243.525 292.966 243.045 295.796 237.375L246.926 235.485L242.666 251.405C246.926 248.405 251.966 245.255 262.216 245.885L275.146 246.675L259.066 284.195C254.656 294.445 246.456 310.515 241.256 318.085H293.116L297.846 302.165C292.016 306.735 287.596 308.315 278.136 308.315Z" fill="#234B2B"/>
<path d="M233.976 199.855H215.886V217.945H233.976V199.855Z" fill="#AC8D30"/>
<path d="M312.646 277.885C322.736 277.885 325.536 284.245 325.536 287.915C325.536 292.715 322.246 295.085 320.146 296.655C324.086 299.025 327.426 302.645 327.426 307.175C327.426 311.705 323.756 315.755 320.526 316.885C318.256 317.695 315.236 318.395 312.596 318.345L303.426 318.235C304.826 313.865 304.986 309.065 304.986 306.695V288.515C304.986 281.175 304.126 279.235 303.586 277.885H312.646ZM310.976 296.435C315.346 295.305 318.906 292.925 318.906 288.235C318.906 283.545 315.346 281.705 310.976 281.335V296.435ZM310.976 314.715C320.306 314.875 320.626 308.245 320.626 306.895C320.626 303.875 318.956 299.125 310.976 297.185V314.715Z" fill="#234B2B"/>
<path d="M332.566 291.145L336.126 290.395C337.096 290.175 338.226 290.175 338.606 290.175C343.836 290.175 346.046 293.145 346.646 294.165C347.456 295.625 347.456 296.375 347.456 298.265L347.676 314.395C347.676 315.045 348.166 316.665 348.696 318.335H342.336V314.395C340.286 315.905 339.696 316.395 337.696 318.065C337.376 318.115 336.296 318.335 335.426 318.335C333.216 318.335 328.306 316.395 328.306 311.805C328.306 306.955 334.566 304.205 338.226 302.745C340.926 301.725 341.196 301.505 342.326 300.695V299.235C342.326 297.835 342.216 297.405 342.006 296.965C341.246 295.565 338.986 294.265 336.396 294.265C334.296 294.265 332.786 295.075 331.056 296.095L332.566 291.135V291.145ZM342.336 303.455L337.816 305.035C335.616 305.805 334.096 307.865 334.086 310.195C334.086 310.215 334.086 310.225 334.086 310.245C334.086 313.375 336.626 314.395 339.426 314.395C340.716 314.395 341.426 314.175 342.336 313.905V303.445V303.455Z" fill="#234B2B"/>
<path d="M362.886 291.095C364.016 290.505 365.366 289.805 367.196 289.805C369.736 289.805 374.316 291.905 374.316 297.195V313.485C374.316 315.755 374.536 316.455 375.336 318.335H368.106C368.966 316.065 368.965 315.045 368.965 313.645V298.055C368.965 297.085 367.996 294.385 363.846 294.385C361.206 294.385 360.126 295.135 358.826 296.005V312.075C358.826 315.045 358.936 315.955 359.316 318.335H352.146C353.336 315.635 353.546 312.615 353.546 309.705V294.545C353.546 293.785 353.056 291.365 352.786 290.015H358.876L358.826 295.515L362.876 291.095H362.886Z" fill="#234B2B"/>
<path d="M385.676 277.285C385.026 279.925 384.595 282.675 384.595 286.295V302.965L391.665 293.745C393.125 291.855 393.175 291.045 393.285 290.025H401.426C397.436 293.635 397.006 294.015 394.896 296.765L390.635 302.265L395.595 310.625C397.805 314.345 399.695 316.615 401.415 318.335H392.736C392.516 316.775 392.415 315.905 390.845 313.315L384.586 303.015V311.915C384.586 313.805 384.805 316.665 385.665 318.335H377.896C379.086 316.125 379.296 314.395 379.296 310.625V285.055C379.296 283.815 379.296 282.465 378.276 278.745L385.665 277.285H385.676Z" fill="#234B2B"/>
<path d="M147.095 351.065C147.095 352.245 146.155 353.185 145.005 353.185C143.855 353.185 142.915 352.245 142.915 351.065C142.915 349.885 143.855 348.975 145.005 348.975C146.155 348.975 147.095 349.915 147.095 351.065Z" fill="#234B2B"/>
<path d="M154.035 351.065C154.035 352.245 153.095 353.185 151.945 353.185C150.795 353.185 149.855 352.245 149.855 351.065C149.855 349.885 150.795 348.975 151.945 348.975C153.095 348.975 154.035 349.915 154.035 351.065Z" fill="#234B2B"/>
<path d="M160.975 351.065C160.975 352.245 160.035 353.185 158.885 353.185C157.735 353.185 156.795 352.245 156.795 351.065C156.795 349.885 157.735 348.975 158.885 348.975C160.035 348.975 160.975 349.915 160.975 351.065Z" fill="#234B2B"/>
<path d="M174.765 333.365L173.165 336.245C171.045 335.405 170.185 335.325 167.585 335.255V342.215H174.075L172.585 345.045C171.225 344.465 170.015 344.125 167.585 344.155V348.555C167.585 350.125 167.745 351.485 168.185 353.005H163.995C164.625 350.545 164.645 348.315 164.645 347.505V338.285C164.645 335.485 164.305 334.415 163.995 333.365H174.755H174.765Z" fill="#234B2B"/>
<path d="M187.255 333.215C193.745 333.215 197.025 338.135 197.025 343.115C197.025 349.245 192.315 353.145 186.765 353.145C180.425 353.145 176.505 348.015 176.505 342.985C176.505 338.615 180.435 333.215 187.265 333.215H187.255ZM187.565 351.015C191.935 351.015 193.975 346.905 193.975 343.845C193.975 339.765 190.855 335.315 186.275 335.315C182.325 335.315 179.785 338.745 179.785 342.545C179.785 347.855 183.815 351.025 187.565 351.025V351.015Z" fill="#234B2B"/>
<path d="M200.635 337.475C200.635 335.175 200.325 334.095 200.115 333.415L203.935 333.365C208.985 333.285 211.375 336.325 211.375 338.965C211.375 342.155 208.545 343.725 207.655 344.205C209.405 347.295 211.815 350.205 214.145 353.005H211.445C208.805 350.725 207.595 349.315 203.535 343.925V348.765C203.535 350.285 203.565 350.915 204.085 353.005H200.105C200.525 351.065 200.625 349.625 200.625 347.925V337.475H200.635ZM203.535 343.635C205.395 343.115 208.375 342.275 208.375 339.265C208.375 337.795 207.455 335.445 203.535 335.045V343.635Z" fill="#234B2B"/>
<path d="M239.875 347.635C241.285 350.695 242.205 351.955 242.935 352.945L238.275 352.995C238.275 352.135 238.175 351.135 237.465 349.535L236.315 346.895H229.425L228.435 349.015C228.095 349.745 227.335 351.445 227.445 352.995H222.655C223.305 352.235 223.885 351.525 225.505 348.305L233.075 333.275H233.235L239.885 347.625L239.875 347.635ZM230.525 344.605H235.285L233.005 339.345L230.515 344.605H230.525Z" fill="#234B2B"/>
<path d="M259.005 333.365C263.905 333.365 265.265 336.455 265.265 338.235C265.265 340.565 263.665 341.715 262.645 342.475C264.555 343.625 266.175 345.385 266.175 347.585C266.175 349.785 264.395 351.745 262.825 352.295C261.725 352.685 260.255 353.025 258.975 353.005L254.525 352.955C255.205 350.835 255.285 348.505 255.285 347.355V338.535C255.285 334.975 254.865 334.035 254.605 333.375H259.005V333.365ZM258.195 342.375C260.315 341.825 262.045 340.675 262.045 338.395C262.045 336.115 260.315 335.225 258.195 335.045V342.375ZM258.195 351.255C262.725 351.335 262.885 348.115 262.885 347.455C262.885 345.985 262.075 343.685 258.195 342.745V351.255Z" fill="#234B2B"/>
<path d="M279.145 333.365L277.655 336.405C275.455 335.405 274.305 335.145 272.235 335.225V342.085H278.385L276.705 344.835C274.455 344.185 273.725 344.075 272.225 343.975V351.145C274.735 351.145 276.125 351.145 280.285 349.735L278.845 353.005H268.555C268.895 351.855 269.285 350.465 269.285 347.955V338.345C269.285 337.005 269.105 335.075 268.555 333.375H279.135L279.145 333.365Z" fill="#234B2B"/>
<path d="M297.306 333.395L295.946 336.405C293.796 335.545 293.096 335.355 290.816 335.355V348.315C290.816 349.885 290.946 351.485 291.366 353.005H287.356C287.646 351.775 287.906 350.335 287.906 348.005V335.355C286.596 335.325 285.446 335.325 281.646 336.695L282.696 333.395H297.306Z" fill="#234B2B"/>
<path d="M314.325 333.395L312.965 336.405C310.815 335.545 310.115 335.355 307.835 335.355V348.315C307.835 349.885 307.965 351.485 308.385 353.005H304.375C304.665 351.775 304.925 350.335 304.925 348.005V335.355C303.615 335.325 302.465 335.325 298.665 336.695L299.715 333.395H314.325Z" fill="#234B2B"/>
<path d="M327.175 333.365L325.685 336.405C323.485 335.405 322.335 335.145 320.265 335.225V342.085H326.415L324.735 344.835C322.485 344.185 321.755 344.075 320.255 343.975V351.145C322.765 351.145 324.155 351.145 328.315 349.735L326.875 353.005H316.585C316.925 351.855 317.315 350.465 317.315 347.955V338.345C317.315 337.005 317.135 335.075 316.585 333.375H327.165L327.175 333.365Z" fill="#234B2B"/>
<path d="M331.475 337.475C331.475 335.175 331.165 334.095 330.955 333.415L334.775 333.365C339.825 333.285 342.215 336.325 342.215 338.965C342.215 342.155 339.385 343.725 338.495 344.205C340.245 347.295 342.655 350.205 344.985 353.005H342.285C339.645 350.725 338.435 349.315 334.375 343.925V348.765C334.375 350.285 334.405 350.915 334.925 353.005H330.945C331.365 351.065 331.465 349.625 331.465 347.925V337.475H331.475ZM334.375 343.635C336.235 343.115 339.215 342.275 339.215 339.265C339.215 337.795 338.295 335.445 334.375 335.045V343.635Z" fill="#234B2B"/>
<path d="M366.575 353.005H356.995C357.495 351.745 357.785 350.985 357.785 346.695V338.025C357.785 335.195 357.415 334.255 357.105 333.395H361.505C361.115 334.415 360.775 335.305 360.745 338.215L360.645 351.015C364.155 350.705 366.115 350.155 368.215 349.315L366.595 353.005H366.575Z" fill="#234B2B"/>
<path d="M375.005 333.365C374.635 334.515 374.275 335.595 374.275 338.545V347.575C374.275 349.805 374.435 350.925 375.005 352.995H370.585C370.975 351.765 371.345 350.635 371.345 347.365V338.015C371.345 335.785 371.085 334.555 370.585 333.355H375.005V333.365Z" fill="#234B2B"/>
<path d="M389.175 333.365L387.575 336.245C385.455 335.405 384.595 335.325 381.995 335.255V342.215H388.485L386.995 345.045C385.635 344.465 384.425 344.125 381.995 344.155V348.555C381.995 350.125 382.155 351.485 382.595 353.005H378.405C379.035 350.545 379.055 348.315 379.055 347.505V338.285C379.055 335.485 378.715 334.415 378.405 333.365H389.165H389.175Z" fill="#234B2B"/>
<path d="M401.995 333.365L400.505 336.405C398.305 335.405 397.155 335.145 395.085 335.225V342.085H401.235L399.555 344.835C397.305 344.185 396.575 344.075 395.075 343.975V351.145C397.585 351.145 398.975 351.145 403.135 349.735L401.695 353.005H391.405C391.745 351.855 392.135 350.465 392.135 347.955V338.345C392.135 337.005 391.955 335.075 391.405 333.375H401.985L401.995 333.365Z" fill="#234B2B"/>
</g>
<defs>
<clipPath id="clip0_11_9244">
<rect width="306.29" height="206.37" fill="white" transform="translate(96.8555 146.815)"/>
</clipPath>
</defs>
</svg>
