<svg width="500" height="500" viewBox="0 0 500 500" fill="none" xmlns="http://www.w3.org/2000/svg">
<rect width="500" height="500" fill="white"/>
<g clip-path="url(#clip0_11_8964)">
<path d="M368.866 215.398H284.462C284.462 215.398 272.065 186.751 241.868 186.751C211.672 186.751 186.165 212.258 185.356 213.067L207.023 168.17L261.999 157.323L307.692 182.87L357.251 157.323L344.868 114.729H273.614L252.716 139.509L223.287 113.961H152.815L126.486 236.31H208.573C211.59 246.554 217.761 253.397 224.178 257.936C234.024 264.902 246.325 267.343 258.256 265.561C292.113 260.501 303.825 237.092 303.825 237.092H313.89L294.527 284.334L234.902 303.697L184.561 275.036L114.871 292.082L104.023 340.846H189.991L197.726 319.947L217.87 340.078H282.144L294.527 319.947L313.108 339.31H395.977L368.866 215.398ZM244.968 251.793C232.132 251.793 221.737 241.398 221.737 228.563C221.737 215.727 232.132 205.332 244.968 205.332C257.803 205.332 268.198 215.741 268.198 228.563C268.198 241.384 257.803 251.793 244.968 251.793Z" fill="#389C54"/>
</g>
<defs>
<clipPath id="clip0_11_8964">
<rect width="291.954" height="226.885" fill="white" transform="translate(104.023 113.961)"/>
</clipPath>
</defs>
</svg>
