<svg width="500" height="500" viewBox="0 0 500 500" fill="none" xmlns="http://www.w3.org/2000/svg">
<rect width="500" height="500" fill="white"/>
<g clip-path="url(#clip0_11_8847)">
<path d="M269.266 203.405V204.692C253.764 204.609 254.079 221.032 254.079 224.982V263.929H249.573L204.427 216.725V242.177C204.427 246.045 204.319 262.642 218.46 262.642V263.929H187.456V262.642C202.85 262.642 202.85 246.045 202.85 242.177V215.347L198.659 210.966C191.954 204.086 188.916 204.858 186.194 204.692V203.405H208.717L252.502 248.717V224.982C252.502 221.024 252.502 204.609 238.469 204.692V203.405H269.266Z" fill="black"/>
<path d="M294.188 252.162C294.188 262.22 300.055 262.651 305.607 262.651V263.938H274.495V262.651C279.316 262.651 281.408 259.299 281.408 252.244V213.638C281.408 208.053 279.208 204.7 274.287 204.7V203.414H297.018C317.864 203.414 332.213 205.995 332.213 220.784C332.213 235.572 317.864 238.07 297.018 238.07H294.188V252.17V252.162ZM297.018 236.767C308.536 236.767 317.864 236.336 317.864 220.775C317.864 205.215 308.329 204.7 297.018 204.7H294.188V236.775H297.018V236.767Z" fill="black"/>
<path d="M394.33 203.405V219.314H392.761C390.039 204.094 366.57 204.7 362.487 204.7H357.881V232.642H363.01C364.479 232.642 378.197 232.899 379.558 223.962H381.126V242.875H379.558C378.197 233.845 364.471 234.103 363.01 234.103H357.881V252.85C357.881 261.962 361.757 262.651 366.363 262.651V263.937H339.026V262.651C343.533 262.651 344.894 258.866 344.894 253.024V213.903C344.894 208.575 343.641 204.7 339.026 204.7V203.414H394.33V203.405Z" fill="black"/>
<path d="M205.115 310.072V310.644H199.223V310.072C200.194 310.072 200.883 309.059 200.883 305.507V281.399L195.315 311.043H195.041L188.617 284.163V299.706C188.617 304.802 189.007 310.072 191.563 310.072V310.644H185.049V310.072C187.904 310.072 188.319 304.669 188.319 299.706V283.192C187.447 280.337 186.294 280.378 185.738 280.295V279.723H190.319L196.302 304.578L200.883 279.723H204.958V280.295C203.97 280.295 203.182 281.175 203.182 284.163V305.507C203.182 309.067 204.128 310.072 205.115 310.072Z" fill="black"/>
<path d="M210.178 310.645H206.31V310.072C207.182 309.591 207.232 308.794 207.232 306.562V294.396C207.232 292.86 207.049 292.246 206.078 291.756V291.234L209.232 289.964V306.562C209.232 309.018 209.348 309.682 210.178 310.072V310.645ZM206.833 284.072C206.833 282.794 207.34 281.831 208.012 281.831C208.684 281.831 209.182 282.794 209.182 284.072C209.182 285.35 208.651 286.312 208.012 286.312C207.373 286.312 206.833 285.3 206.833 284.072Z" fill="black"/>
<path d="M221.199 305.241C220.942 307.44 219.772 311.042 216.942 311.042C214.361 311.042 211.921 307 211.921 300.544C211.921 295.141 213.996 289.963 217.514 289.963C219.772 289.963 220.46 291.938 220.668 292.643C220.85 293.258 220.9 294.096 220.693 294.793C220.394 295.714 219.705 296.112 219.216 295.54C218.684 294.967 218.527 293.697 218.826 292.776C218.983 292.245 219.24 291.897 219.473 291.855C219.68 291.764 219.058 290.536 217.514 290.536C216.593 290.536 214.062 291.855 214.062 300.063C214.062 305.905 215.788 308.32 217.423 308.627C219.099 308.893 220.527 306.826 220.942 305.025L221.199 305.241Z" fill="black"/>
<path d="M229.697 290.926C230.153 291.98 230.087 293.474 229.539 294.353C229.008 295.192 228.228 295.1 227.747 294.046C227.539 293.565 227.423 292.951 227.489 292.378C227.556 291.631 226.012 292.685 225.299 295.631V306.569C225.299 309.026 225.415 309.69 226.245 310.08V310.652H222.352V310.08C223.224 309.598 223.274 308.852 223.274 306.569V294.403C223.274 292.868 223.066 292.254 222.12 291.764V291.241L225.299 289.972V294.586C226.153 291.598 227.465 290.329 228.386 290.104C228.801 290.013 229.373 290.237 229.697 290.943V290.926Z" fill="black"/>
<path d="M236.253 311.034C232.751 311.034 230.934 306.246 230.934 300.495C230.934 294.744 232.751 289.955 236.253 289.955C239.755 289.955 241.548 294.694 241.548 300.495C241.548 306.296 239.772 311.034 236.253 311.034ZM236.253 290.528C234.477 290.528 233.282 292.544 233.282 300.495C233.282 308.445 234.477 310.462 236.253 310.462C238.029 310.462 239.174 308.445 239.174 300.495C239.174 292.544 238.004 290.528 236.253 290.528Z" fill="black"/>
<path d="M253.523 310.644H249.656V310.296C250.527 309.814 250.552 309.018 250.552 306.785V293.789C250.552 292.254 250.32 290.934 249.398 290.934H246.245V306.918C246.245 309.333 246.544 310.038 247.349 310.304V310.653H243.324V310.304C244.195 309.955 244.245 309.159 244.245 306.918V290.934H242.768L242.718 290.362H244.236V289.881C244.236 280.66 246.12 277.938 249.39 277.938C250.793 277.938 252.104 279.167 252.361 281.54C252.452 282.42 252.452 283.474 252.178 284.171C251.764 285.183 250.983 285.358 250.477 284.611C249.921 283.773 249.83 282.37 250.27 281.316C250.477 280.835 250.751 280.436 251.05 280.478C251.581 280.519 250.959 278.503 249.39 278.503C248.419 278.503 246.236 278.901 246.236 289.308V290.362H252.569V306.785C252.569 309.2 252.685 309.906 253.515 310.296V310.644H253.523Z" fill="black"/>
<path d="M265.283 310.644H261.415V310.121C262.287 309.64 262.337 308.802 262.337 306.561V297.117C262.337 294.129 261.507 292.154 259.988 292.154C258.793 292.154 257.822 294.353 257.639 295.93V306.603C257.639 309.018 257.756 309.673 258.585 310.071V310.644H254.718V310.071C255.59 309.59 255.614 308.843 255.614 306.603V294.353C255.614 292.818 255.432 292.246 254.461 291.764V291.241L257.639 289.972V294.586C258.121 292.038 259.714 289.972 261.158 289.972C263.025 289.972 264.337 291.681 264.337 297.001V306.578C264.337 308.993 264.478 309.74 265.283 310.138V310.661V310.644Z" fill="black"/>
<path d="M276.361 307.831L276.635 308.047C276.494 309.366 275.714 311.035 274.519 311.035C274.519 311.035 272.701 311.126 272.56 307.342C272.237 309.449 270.9 311.035 269.29 311.035C269.29 311.035 266.668 311.035 266.668 306.512C266.668 301.989 268.627 301.151 272.56 299.225V296.677C272.56 292.155 271.365 289.607 269.523 291.233C268.626 292.072 268.485 292.902 268.626 292.943C268.9 293.034 269.158 293.25 269.34 293.731C269.689 294.611 269.597 295.931 269.108 296.586C268.651 297.292 267.979 297.109 267.631 296.188C267.382 295.532 267.332 294.653 267.514 294.038C267.672 293.383 268.07 292.063 269.307 290.785C270.295 289.823 271.423 289.955 271.423 289.955C273.929 289.955 274.627 293.516 274.627 298.736V306.205C274.627 306.205 274.602 308.968 275.664 308.968C275.664 308.968 276.195 308.968 276.353 307.823L276.361 307.831ZM268.718 305.59C268.718 306.868 269.133 309.059 270.535 309.059C271.755 309.059 272.328 307.391 272.56 306.337V299.798C269.888 301.026 268.718 302.96 268.718 305.59Z" fill="black"/>
<path d="M287.781 310.644H283.913V310.121C284.785 309.64 284.835 308.802 284.835 306.561V297.117C284.835 294.129 284.005 292.154 282.486 292.154C281.291 292.154 280.32 294.353 280.137 295.93V306.603C280.137 309.018 280.254 309.673 281.084 310.071V310.644H277.216V310.071C278.088 309.59 278.113 308.843 278.113 306.603V294.353C278.113 292.818 277.93 292.246 276.959 291.764V291.241L280.137 289.972V294.586C280.619 292.038 282.212 289.972 283.656 289.972C285.523 289.972 286.835 291.681 286.835 297.001V306.578C286.835 308.993 286.976 309.74 287.781 310.138V310.661V310.644Z" fill="black"/>
<path d="M298.527 305.241C298.27 307.44 297.1 311.042 294.27 311.042C291.689 311.042 289.249 307 289.249 300.544C289.249 295.141 291.324 289.963 294.842 289.963C297.1 289.963 297.789 291.938 297.996 292.643C298.179 293.258 298.228 294.096 298.021 294.793C297.722 295.714 297.033 296.112 296.544 295.54C296.013 294.967 295.855 293.697 296.154 292.776C296.311 292.245 296.569 291.897 296.801 291.855C297.008 291.764 296.386 290.536 294.842 290.536C293.921 290.536 291.39 291.855 291.39 300.063C291.39 305.905 293.116 308.32 294.751 308.627C296.428 308.893 297.855 306.826 298.27 305.025L298.527 305.241Z" fill="black"/>
<path d="M309.117 305.457C308.86 307.524 307.598 311.034 304.885 311.034C302.005 311.034 299.955 306.47 299.955 300.669C299.955 294.171 302.121 289.955 304.976 289.955C307.648 289.955 309.49 293.208 309.49 300.096H302.121C302.212 306.022 303.598 308.395 305.416 308.744C306.793 309.009 308.428 307.383 308.843 305.233L309.117 305.449V305.457ZM307.507 299.532C307.507 293.117 306.013 290.528 304.909 290.528C303.598 290.528 302.121 293.997 302.121 299.532H307.507Z" fill="black"/>
<path d="M321.316 310.644H316.71V310.246C317.698 310.246 318.046 308.354 318.046 305.374V284.909C318.046 282.187 317.722 280.121 316.71 280.121V279.723H321.316C324.519 279.723 327.233 280.071 327.233 287.233C327.233 294.395 323.847 294.785 323.391 294.785C324.884 294.785 328.32 295.358 328.32 302.777C328.32 310.196 325.308 310.636 321.324 310.636L321.316 310.644ZM320.42 280.295V294.702H321.797C323.225 294.702 324.743 293.864 324.743 287.192C324.743 280.519 322.835 280.295 321.432 280.295H320.42ZM321.797 295.266H320.42V310.063H321.432C323.64 310.063 325.739 310.155 325.739 302.594C325.739 295.482 323.507 295.258 321.805 295.258L321.797 295.266Z" fill="black"/>
<path d="M340.03 307.831L340.304 308.047C340.163 309.366 339.383 311.035 338.188 311.035C338.188 311.035 336.37 311.126 336.229 307.342C335.905 309.449 334.569 311.035 332.959 311.035C332.959 311.035 330.337 311.035 330.337 306.512C330.337 301.989 332.295 301.151 336.229 299.225V296.677C336.229 292.155 335.034 289.607 333.192 291.233C332.295 292.072 332.154 292.902 332.295 292.943C332.569 293.034 332.827 293.25 333.009 293.731C333.358 294.611 333.258 295.931 332.777 296.586C332.32 297.292 331.648 297.109 331.3 296.188C331.042 295.532 331.001 294.653 331.183 294.038C331.341 293.383 331.739 292.063 332.976 290.785C333.964 289.823 335.092 289.955 335.092 289.955C337.598 289.955 338.296 293.516 338.296 298.736V306.205C338.296 306.205 338.271 308.968 339.333 308.968C339.333 308.968 339.864 308.968 340.022 307.823L340.03 307.831ZM332.387 305.59C332.387 306.868 332.802 309.059 334.204 309.059C335.424 309.059 335.997 307.391 336.229 306.337V299.798C333.557 301.026 332.387 302.96 332.387 305.59Z" fill="black"/>
<path d="M351.45 310.644H347.582V310.121C348.454 309.64 348.504 308.802 348.504 306.561V297.117C348.504 294.129 347.674 292.154 346.155 292.154C344.96 292.154 343.989 294.353 343.806 295.93V306.603C343.806 309.018 343.923 309.673 344.752 310.071V310.644H340.885V310.071C341.757 309.59 341.781 308.843 341.781 306.603V294.353C341.781 292.818 341.599 292.246 340.628 291.764V291.241L343.806 289.972V294.586C344.288 292.038 345.881 289.972 347.325 289.972C349.192 289.972 350.504 291.681 350.504 297.001V306.578C350.504 308.993 350.645 309.74 351.45 310.138V310.661V310.644Z" fill="black"/>
<path d="M356.212 310.644H352.32V310.071C353.192 309.59 353.241 308.843 353.241 306.602V282.494C353.241 280.959 353.034 280.345 352.088 279.988V279.415L355.266 278.229V306.594C355.266 309.009 355.383 309.665 356.212 310.063V310.636V310.644ZM363.374 310.644H361.325C359.739 310.644 359.3 309.806 357.64 305.465C357.275 304.544 355.889 301.208 355.889 301.208L358.055 296.951C358.055 296.951 361.466 290.843 358.403 290.934V290.361H363.582V290.934C362.52 290.976 361.208 291.415 357.482 299.191C359.183 303.806 361.441 308.328 361.441 308.328C362.129 309.955 362.843 310.088 363.374 310.088V310.66V310.644Z" fill="black"/>
<path d="M373.598 304.627C373.598 309.897 374.428 310.071 375.88 310.071V310.644H369.806V310.071C370.934 310.071 371.324 308.926 371.324 304.76V284.428C371.324 281.399 371.001 280.303 369.847 280.303V279.73H374.013C378.594 279.73 381.632 280.784 381.632 288.602C381.632 296.419 378.594 297.432 374.013 297.432H373.598V304.635V304.627ZM374.005 296.851C376.81 296.851 379.117 296.718 379.117 288.594C379.117 280.469 376.702 280.295 374.005 280.295H373.59V296.851H374.005Z" fill="black"/>
<path d="M386.902 310.644H383.035V310.071C383.906 309.59 383.956 308.843 383.956 306.602V282.494C383.956 280.959 383.749 280.345 382.803 279.988V279.415L385.981 278.229V306.594C385.981 309.009 386.097 309.665 386.902 310.063V310.636V310.644Z" fill="black"/>
<path d="M397.723 305.241C397.466 307.44 396.296 311.042 393.466 311.042C390.885 311.042 388.445 307 388.445 300.544C388.445 295.141 390.52 289.963 394.039 289.963C396.296 289.963 396.985 291.938 397.192 292.643C397.375 293.258 397.425 294.096 397.217 294.793C396.918 295.714 396.23 296.112 395.74 295.54C395.209 294.967 395.051 293.697 395.35 292.776C395.508 292.245 395.765 291.897 395.997 291.855C396.205 291.764 395.582 290.536 394.039 290.536C393.118 290.536 390.586 291.855 390.586 300.063C390.586 305.905 392.313 308.32 393.947 308.627C395.624 308.893 397.051 306.826 397.466 305.025L397.723 305.241Z" fill="black"/>
<path d="M399.583 308.27C399.583 306.818 400.181 305.64 400.944 305.64C401.708 305.64 402.305 306.826 402.305 308.27C402.305 309.714 401.683 310.86 400.944 310.86C400.205 310.86 399.583 309.714 399.583 308.27Z" fill="black"/>
<path d="M399.333 268.66H183.115V271.955H399.333V268.66Z" fill="black"/>
<path d="M107.795 162.344V337.649C106.874 337.508 105.97 337.325 105.082 337.101C89.8035 333.366 78.459 319.582 78.459 303.142V196.859C78.459 180.419 89.8035 166.634 105.082 162.9L107.795 162.344Z" fill="#27186B"/>
<path d="M142.194 161.896V338.105H113.422C111.505 338.105 109.63 337.947 107.796 337.649C106.875 337.507 105.97 337.325 105.082 337.101V162.9L107.796 162.344C109.63 162.053 111.505 161.896 113.422 161.896H142.194Z" fill="#FEF305"/>
<path d="M176.593 161.896H139.48V338.105H176.593V161.896Z" fill="#00612E"/>
<path d="M421.542 196.859V303.142C421.542 322.453 405.89 338.105 386.579 338.105H113.422C111.505 338.105 109.629 337.947 107.795 337.649C106.874 337.507 105.97 337.325 105.082 337.101C89.8035 333.366 78.459 319.582 78.459 303.142V196.859C78.459 180.419 89.8035 166.634 105.082 162.9C105.97 162.676 106.874 162.493 107.795 162.344C109.629 162.053 111.505 161.896 113.422 161.896H386.579C405.89 161.896 421.542 177.547 421.542 196.859Z" stroke="black" stroke-width="2.48966" stroke-miterlimit="10"/>
</g>
<defs>
<clipPath id="clip0_11_8847">
<rect width="345.572" height="178.699" fill="white" transform="translate(77.2139 160.65)"/>
</clipPath>
</defs>
</svg>
