<svg width="500" height="500" viewBox="0 0 500 500" fill="none" xmlns="http://www.w3.org/2000/svg">
<rect width="500" height="500" fill="white"/>
<g clip-path="url(#clip0_11_8342)">
<path d="M372.184 134.981C369.597 122.432 360.018 112.508 347.594 109.347C328.588 104.5 307.753 101.013 285.692 99.1548C273.756 98.1489 261.457 97.6221 248.898 97.6221C237.135 97.6221 225.592 98.0819 214.374 98.9632C192.457 100.687 171.727 104.021 152.77 108.696C140.259 111.78 130.575 121.724 127.95 134.33C122.49 160.529 119.453 189.708 119.453 220.477C119.453 236.551 120.287 252.194 121.858 267.204C122.078 269.293 122.308 271.371 122.557 273.421V273.44C125.574 291.114 138.104 339.576 187.294 372.663C207.717 386.4 228.025 395.318 244.645 400.74C246.446 401.334 248.199 401.88 249.904 402.387C251.686 401.861 253.525 401.286 255.412 400.663C271.994 395.232 292.187 386.333 312.514 372.663C370.871 333.416 377.73 271.85 378.219 266.342C378.228 266.256 378.238 266.189 378.247 266.132C379.751 251.446 380.537 236.167 380.537 220.477C380.537 189.967 377.539 161.008 372.174 134.981H372.184ZM354.941 285.491C345.438 315.168 326.644 338.925 300.76 356.34C297.724 358.39 294.381 360.392 290.923 362.317L232.633 245.737C258.669 229.606 281.401 249.406 300.1 250.872C318.798 252.337 337.871 235.104 337.871 235.104L336.769 173.5C336.769 173.5 310.733 184.861 291.296 185.234C271.86 185.598 255.719 168.365 230.784 167.628C205.849 166.89 195.216 178.625 195.216 178.625L195.733 167.599C195.867 164.629 194.564 161.765 192.227 159.926L171.718 143.804C171.153 143.363 170.463 143.124 169.773 143.124C169.38 143.124 168.978 143.2 168.605 143.354C167.407 143.833 166.622 144.992 166.622 146.285V171.411C166.622 174.525 168.202 177.427 170.808 179.123C170.808 179.123 170.817 179.123 170.827 179.132L179.094 184.487L274.552 370.527C263.21 375.738 253.496 379.368 251.82 379.934C248.889 378.937 220.697 368.333 202.87 356.33C176.986 338.915 158.182 315.158 148.689 285.482C141.054 261.62 141.007 237.049 141.351 212.612C141.476 203.694 142.022 194.785 142.654 185.895C143.392 175.607 144.321 165.329 145.557 155.088C146.189 149.762 146.792 144.436 147.798 139.158C148.833 133.774 148.9 128.439 154.743 126.628C178.95 119.185 204.671 117.413 229.835 116.053C255.345 114.683 280.836 115.899 306.24 118.62C318.434 119.923 330.763 121.513 342.632 124.722C344.739 125.287 346.799 125.986 348.887 126.628C354.74 128.429 354.807 133.774 355.832 139.158C356.838 144.427 357.432 149.762 358.083 155.088C359.319 165.329 360.238 175.607 360.976 185.895C361.608 194.785 362.154 203.694 362.279 212.612C362.624 237.039 362.576 261.62 354.951 285.482L354.941 285.491Z" fill="url(#paint0_linear_11_8342)"/>
<path d="M362.279 212.621C362.154 203.703 361.608 194.794 360.976 185.905C360.239 175.616 359.309 165.338 358.083 155.098C357.441 149.771 356.847 144.445 355.832 139.167C354.807 133.784 354.74 128.448 348.887 126.637C346.799 125.996 344.739 125.296 342.632 124.731C330.763 121.532 318.434 119.942 306.24 118.629C280.845 115.899 255.345 114.692 229.836 116.062C204.68 117.422 178.95 119.194 154.743 126.637C148.891 128.438 148.823 133.784 147.798 139.167C146.802 144.436 146.199 149.771 145.557 155.098C144.321 165.338 143.392 175.616 142.654 185.905C142.022 194.794 141.476 203.703 141.352 212.621C141.007 237.048 141.055 261.629 148.689 285.491C158.182 315.168 176.987 338.924 202.87 356.339C220.706 368.342 248.889 378.947 251.82 379.943C253.506 379.368 263.21 375.737 274.552 370.536L179.094 184.487L170.827 179.132C170.827 179.132 170.818 179.132 170.808 179.122C168.202 177.427 166.622 174.524 166.622 171.411V146.285C166.622 144.991 167.407 143.832 168.605 143.353C168.978 143.2 169.381 143.123 169.773 143.123C170.473 143.123 171.153 143.353 171.718 143.804L192.227 159.925C194.565 161.765 195.867 164.619 195.733 167.599L195.216 178.624C195.216 178.624 205.849 166.89 230.784 167.627C255.719 168.365 271.86 185.598 291.296 185.234C310.733 184.86 336.769 173.499 336.769 173.499L337.871 235.104C337.871 235.104 318.798 252.337 300.1 250.871C281.401 249.406 258.66 229.605 232.633 245.737L290.923 362.317C294.381 360.391 297.724 358.389 300.761 356.339C326.654 338.924 345.448 315.168 354.941 285.491C362.576 261.629 362.614 237.058 362.269 212.621H362.279ZM240.334 350.611C240.334 350.611 186.211 330.15 170.655 283.508C156.717 241.704 164.419 199.162 164.419 199.162L240.334 350.611ZM300.109 165.788C274.437 167.254 253.908 154.053 239.233 151.486C224.567 148.919 212.095 153.689 212.095 153.689L194.124 140.853C276.63 127.653 333.11 144.886 333.11 144.886L333.848 154.417C333.848 154.417 325.772 164.322 300.109 165.788ZM298.27 330.811L261.601 260.393C302.303 288.269 339.71 255.996 339.71 255.996C328.713 312.83 298.27 330.801 298.27 330.801V330.811Z" fill="white"/>
<path d="M240.334 350.611C240.334 350.611 186.211 330.149 170.655 283.508C156.717 241.704 164.418 199.162 164.418 199.162L240.334 350.611Z" fill="#3F88C0"/>
<path d="M339.71 255.997C328.713 312.831 298.27 330.802 298.27 330.802L261.601 260.384C302.303 288.26 339.71 255.987 339.71 255.987V255.997Z" fill="#3F88C0"/>
<path d="M333.848 154.417C333.848 154.417 325.772 164.322 300.109 165.788C274.437 167.254 253.908 154.053 239.233 151.486C224.567 148.919 212.095 153.689 212.095 153.689L194.124 140.853C276.631 127.653 333.11 144.886 333.11 144.886L333.848 154.417Z" fill="#3F88C0"/>
<path d="M267.951 366.79C267.951 366.79 267.846 366.761 267.76 366.732" stroke="#000084" stroke-width="0.95793" stroke-miterlimit="10"/>
</g>
<defs>
<linearGradient id="paint0_linear_11_8342" x1="141.679" y1="241.452" x2="436.741" y2="241.452" gradientUnits="userSpaceOnUse">
<stop stop-color="#1F4388"/>
<stop offset="1" stop-color="#081122"/>
</linearGradient>
<clipPath id="clip0_11_8342">
<rect width="261.093" height="304.756" fill="white" transform="translate(119.453 97.6221)"/>
</clipPath>
</defs>
</svg>
