<svg width="500" height="500" viewBox="0 0 500 500" fill="none" xmlns="http://www.w3.org/2000/svg">
<rect width="500" height="500" fill="white"/>
<g clip-path="url(#clip0_11_8353)">
<path d="M250 416.462C341.935 416.462 416.463 341.934 416.463 249.999C416.463 158.064 341.935 83.5361 250 83.5361C158.065 83.5361 83.5371 158.064 83.5371 249.999C83.5371 341.934 158.065 416.462 250 416.462Z" fill="#CA021E"/>
<path d="M312.131 239.247C339.864 239.247 362.346 216.765 362.346 189.032C362.346 161.299 339.864 138.817 312.131 138.817C284.398 138.817 261.916 161.299 261.916 189.032C261.916 216.765 284.398 239.247 312.131 239.247Z" fill="white"/>
</g>
<defs>
<clipPath id="clip0_11_8353">
<rect width="332.926" height="332.926" fill="white" transform="translate(83.5371 83.5361)"/>
</clipPath>
</defs>
</svg>
