<svg width="500" height="500" viewBox="0 0 500 500" fill="none" xmlns="http://www.w3.org/2000/svg">
<rect width="500" height="500" fill="white"/>
<g clip-path="url(#clip0_11_8611)">
<path d="M270.54 250.32V351.27H231.5V315.87H229.31C224.63 326.8 217.13 335.86 206.72 343.04C196.41 350.33 183.61 353.87 168.2 353.87C109.49 353.87 93.87 284.02 103.76 237.48C104.28 235.19 104.8 232.9 105.43 230.61C109.39 216.24 111.16 203.85 111.57 193.34C112.51 169.65 106.43 155.69 103.21 149.89C102.47 148.54 103.51 146.86 105.04 147C114.44 147.92 122.9 152.09 129.26 158.46C136.44 165.64 140.92 175.64 140.92 186.57V272.04C140.92 285.99 144.77 297.13 152.48 305.35C160.18 313.57 170.28 317.74 182.57 317.74C182.57 317.74 183.82 317.84 186.21 317.53C192.46 317.11 198.7 315.24 204.84 312.12C206.71 311.18 208.48 310.14 210.15 309C210.25 308.9 210.36 308.9 210.46 308.79C216.71 305.35 223.89 300.46 231.49 293.8L231.59 293.7C243.06 283.74 255.71 269.78 269.14 249.96C269.56 249.35 270.53 249.58 270.53 250.32H270.54Z" fill="black"/>
<path d="M230.34 250.56V149.6H269.38V185H271.57C276.25 174.07 283.75 165.01 294.16 157.83C304.46 150.54 317.26 147 332.67 147C391.39 147 407 216.86 397.11 263.39C396.59 265.68 396.07 267.97 395.44 270.26C391.48 284.63 389.71 297.02 389.3 307.53C388.36 331.22 394.43 345.18 397.65 350.99C398.4 352.33 397.35 354.02 395.82 353.87C386.42 352.95 377.96 348.78 371.6 342.41C364.42 335.23 359.94 325.23 359.94 314.3V228.83C359.94 214.88 356.09 203.74 348.38 195.52C340.68 187.3 330.58 183.13 318.29 183.13C318.29 183.13 317.04 183.03 314.65 183.34C308.4 183.76 302.16 185.63 296.02 188.75C294.15 189.69 292.38 190.73 290.71 191.87C290.61 191.97 290.5 191.97 290.4 192.08C284.15 195.52 276.97 200.41 269.37 207.07L269.27 207.17C257.8 217.13 245.15 231.09 231.72 250.91C231.3 251.52 230.33 251.29 230.33 250.55L230.34 250.56Z" fill="#85C449"/>
</g>
<defs>
<clipPath id="clip0_11_8611">
<rect width="298.87" height="206.87" fill="white" transform="translate(101 147)"/>
</clipPath>
</defs>
</svg>
