<svg width="500" height="500" viewBox="0 0 500 500" fill="none" xmlns="http://www.w3.org/2000/svg">
<rect width="500" height="500" fill="white"/>
<g clip-path="url(#clip0_11_8511)">
<path d="M85.4346 131.78H231.004L221.23 143.298H196.545C185.158 143.298 177.795 155.334 182.988 165.46L268.357 332.507L243.226 367.763L145.562 172.73C136.103 153.832 116.778 141.907 95.6536 141.907H85.7869L85.4346 131.78Z" fill="#00695A"/>
<path d="M215.592 190.073H293.116C298.086 190.073 300.961 195.693 298.049 199.717L253.167 262.014C250.515 265.686 244.933 265.297 242.837 261.272L210.196 198.975C208.063 194.914 211.012 190.055 215.592 190.055V190.073Z" fill="#00695A"/>
<path d="M211.104 155.168L248.123 123.398L249.514 133.525C249.514 133.525 356.674 118.15 371.344 178.203C386.015 238.256 276.74 421.53 276.74 421.53L248.457 376.5C248.457 376.5 376.574 199.16 343.061 161.103C309.548 123.046 211.104 155.168 211.104 155.168Z" fill="#FD0000"/>
</g>
<defs>
<clipPath id="clip0_11_8511">
<rect width="287.338" height="298.132" fill="white" transform="translate(85.4346 123.398)"/>
</clipPath>
</defs>
</svg>
