<svg width="500" height="500" viewBox="0 0 500 500" fill="none" xmlns="http://www.w3.org/2000/svg">
<rect width="500" height="500" fill="white"/>
<g clip-path="url(#clip0_11_8578)">
<path d="M403.105 172.276C402.289 170.939 400.816 170.123 399.251 170.123H381.75C380.028 170.123 378.463 171.097 377.693 172.639L280.417 368.029L276.767 361.41L365.338 176.606C366.018 175.201 365.927 173.546 365.088 172.231C364.249 170.916 362.821 170.123 361.257 170.123H344.187C342.441 170.123 340.854 171.12 340.106 172.684L262.598 332.574L255.82 319.176L327.751 176.697C328.454 175.291 328.386 173.614 327.57 172.276C326.754 170.939 325.28 170.123 323.716 170.123H306.215C304.492 170.123 302.928 171.097 302.157 172.639L242.4 292.653L238.183 284.31L289.825 176.606C290.505 175.201 290.414 173.546 289.575 172.231C288.737 170.916 287.308 170.123 285.744 170.123H268.674C266.928 170.123 265.341 171.12 264.593 172.684L224.037 256.358L180.103 169.624C178.97 167.38 176.249 166.496 174.005 167.629C171.761 168.762 170.877 171.483 172.01 173.727L219.027 266.628L187.063 332.597L104.568 169.624C103.457 167.38 100.714 166.496 98.4921 167.629C96.2478 168.762 95.3637 171.483 96.4972 173.704L183.118 344.816C183.889 346.334 185.453 347.309 187.153 347.309H187.199C188.922 347.309 190.486 346.312 191.234 344.748L224.196 276.761L228.072 284.423L192.027 359.596C191.393 360.911 191.438 362.475 192.141 363.745L201.095 379.954C201.911 381.427 203.385 382.334 205.153 382.289C206.831 382.243 208.372 381.291 209.12 379.772L242.445 312.851L245.641 319.176L209.12 391.515C207.987 393.76 208.894 396.48 211.115 397.613C211.773 397.953 212.476 398.112 213.156 398.112C214.811 398.112 216.42 397.205 217.214 395.618L250.719 329.242L258.608 344.838C259.379 346.38 261.011 347.241 262.689 347.332C264.412 347.332 265.976 346.334 266.724 344.77L347.043 179.191H354.071L267.563 359.596C266.928 360.911 266.974 362.475 267.676 363.745L276.631 379.954C277.447 381.427 278.943 382.334 280.689 382.289C282.366 382.243 283.908 381.291 284.656 379.772L384.561 179.191H391.884L284.679 391.515C283.545 393.76 284.452 396.48 286.674 397.613C287.331 397.953 288.034 398.112 288.714 398.112C290.369 398.112 291.978 397.205 292.772 395.618L403.287 176.697C403.989 175.291 403.921 173.614 403.105 172.276ZM229.16 266.514L271.508 179.191H278.535L233.014 274.131L229.16 266.537V266.514ZM204.881 368.029L201.231 361.41L233.241 294.625L237.367 302.763L204.881 368.007V368.029ZM247.5 302.741L309.026 179.191H316.348L250.742 309.133L247.5 302.741Z" fill="#991988"/>
</g>
<defs>
<clipPath id="clip0_11_8578">
<rect width="307.764" height="230.959" fill="white" transform="translate(95.998 167.131)"/>
</clipPath>
</defs>
</svg>
